<?xml version="1.0" encoding="UTF-8"?>
<svg xmlns="http://www.w3.org/2000/svg" xmlns:xlink="http://www.w3.org/1999/xlink" width="px" height="px" viewBox="0 0 64 64" version="1.1">
<g id="surface1">
<path style=" stroke:none;fill-rule:nonzero;fill:rgb(8.235294%,44.705882%,71.372549%);fill-opacity:1;" d="M 9.40625 57.0625 L 4.378906 0.675781 L 59.621094 0.675781 L 54.589844 57.054688 L 31.964844 63.324219 Z M 9.40625 57.0625 "/>
<path style=" stroke:none;fill-rule:nonzero;fill:rgb(20%,66.27451%,86.27451%);fill-opacity:1;" d="M 32 58.53125 L 50.28125 53.464844 L 54.582031 5.285156 L 32 5.285156 Z M 32 58.53125 "/>
<path style=" stroke:none;fill-rule:nonzero;fill:rgb(100%,100%,100%);fill-opacity:1;" d="M 32 25.714844 L 41.152344 25.714844 L 41.785156 18.632812 L 32 18.632812 L 32 11.71875 L 49.339844 11.71875 L 49.175781 13.574219 L 47.476562 32.628906 L 32 32.628906 Z M 32 25.714844 "/>
<path style=" stroke:none;fill-rule:nonzero;fill:rgb(92.156863%,92.156863%,92.156863%);fill-opacity:1;" d="M 32.042969 43.675781 L 32.011719 43.683594 L 24.308594 41.605469 L 23.816406 36.089844 L 16.875 36.089844 L 17.84375 46.945312 L 32.011719 50.878906 L 32.042969 50.871094 Z M 32.042969 43.675781 "/>
<path style=" stroke:none;fill-rule:nonzero;fill:rgb(100%,100%,100%);fill-opacity:1;" d="M 40.5625 32.335938 L 39.730469 41.597656 L 32.015625 43.679688 L 32.015625 50.875 L 46.195312 46.945312 L 46.296875 45.777344 L 47.5 32.335938 Z M 40.5625 32.335938 "/>
<path style=" stroke:none;fill-rule:nonzero;fill:rgb(92.156863%,92.156863%,92.156863%);fill-opacity:1;" d="M 32.023438 11.71875 L 32.023438 18.632812 L 15.320312 18.632812 L 15.179688 17.078125 L 14.867188 13.574219 L 14.699219 11.71875 Z M 32 25.714844 L 32 32.632812 L 24.394531 32.632812 L 24.257812 31.078125 L 23.941406 27.570312 L 23.777344 25.714844 Z M 32 25.714844 "/>
</g>
</svg>
