<?xml version="1.0" encoding="UTF-8"?>
<svg xmlns="http://www.w3.org/2000/svg" xmlns:xlink="http://www.w3.org/1999/xlink" width="px" height="px" viewBox="0 0 64 64" version="1.1">
<g id="surface1">
<path style=" stroke:none;fill-rule:nonzero;fill:rgb(89.411765%,30.196078%,14.901961%);fill-opacity:1;" d="M 9.519531 56.9375 L 4.515625 0.832031 L 59.484375 0.832031 L 54.476562 56.929688 L 31.964844 63.167969 Z M 9.519531 56.9375 "/>
<path style=" stroke:none;fill-rule:nonzero;fill:rgb(94.509804%,39.607843%,16.078431%);fill-opacity:1;" d="M 32 58.398438 L 50.1875 53.355469 L 54.46875 5.417969 L 32 5.417969 Z M 32 58.398438 "/>
<path style=" stroke:none;fill-rule:nonzero;fill:rgb(92.156863%,92.156863%,92.156863%);fill-opacity:1;" d="M 32 26.226562 L 22.894531 26.226562 L 22.265625 19.179688 L 32 19.179688 L 32 12.300781 L 14.746094 12.300781 L 14.910156 14.144531 L 16.601562 33.109375 L 32 33.109375 Z M 32 44.097656 L 31.96875 44.109375 L 24.304688 42.039062 L 23.816406 36.550781 L 16.90625 36.550781 L 17.871094 47.355469 L 31.96875 51.265625 L 32 51.257812 Z M 32 44.097656 "/>
<path style=" stroke:none;fill-rule:nonzero;fill:rgb(100%,100%,100%);fill-opacity:1;" d="M 31.976562 26.226562 L 31.976562 33.109375 L 40.449219 33.109375 L 39.652344 42.035156 L 31.976562 44.105469 L 31.976562 51.265625 L 46.082031 47.355469 L 46.1875 46.191406 L 47.804688 28.074219 L 47.972656 26.226562 Z M 31.976562 12.300781 L 31.976562 19.179688 L 48.597656 19.179688 L 48.734375 17.632812 L 49.050781 14.144531 L 49.214844 12.300781 Z M 31.976562 12.300781 "/>
</g>
</svg>
