<?xml version="1.0" encoding="UTF-8"?>
<svg xmlns="http://www.w3.org/2000/svg" xmlns:xlink="http://www.w3.org/1999/xlink" width="px" height="px" viewBox="0 0 64 64" version="1.1">
<g id="surface1">
<path style=" stroke:none;fill-rule:nonzero;fill:rgb(14.117647%,53.72549%,79.215686%);fill-opacity:1;" d="M 1.828125 22.523438 C 1.828125 22.523438 0.316406 21.425781 2.132812 19.964844 L 6.367188 16.167969 C 6.367188 16.167969 7.578125 14.886719 8.863281 16.003906 L 47.949219 45.667969 L 47.949219 59.894531 C 47.949219 59.894531 47.929688 62.128906 45.070312 61.882812 Z M 1.828125 22.523438 "/>
<path style=" stroke:none;fill-rule:nonzero;fill:rgb(6.27451%,43.921569%,70.196078%);fill-opacity:1;" d="M 11.90625 31.691406 L 1.828125 40.871094 C 1.828125 40.871094 0.792969 41.640625 1.828125 43.023438 L 6.507812 47.285156 C 6.507812 47.285156 7.617188 48.484375 9.261719 47.121094 L 19.941406 39.003906 Z M 11.90625 31.691406 "/>
<path style=" stroke:none;fill-rule:nonzero;fill:rgb(3.137255%,46.666667%,72.54902%);fill-opacity:1;" d="M 29.59375 31.765625 L 48.070312 17.621094 L 47.949219 3.472656 C 47.949219 3.472656 47.160156 0.386719 44.527344 1.996094 L 19.941406 24.425781 Z M 29.59375 31.765625 "/>
<path style=" stroke:none;fill-rule:nonzero;fill:rgb(23.529412%,60%,83.137255%);fill-opacity:1;" d="M 45.070312 61.898438 C 46.140625 63 47.445312 62.636719 47.445312 62.636719 L 61.84375 55.527344 C 63.683594 54.265625 63.425781 52.703125 63.425781 52.703125 L 63.425781 10.234375 C 63.425781 8.363281 61.523438 7.71875 61.523438 7.71875 L 49.039062 1.691406 C 46.316406 0 44.527344 1.996094 44.527344 1.996094 C 44.527344 1.996094 46.824219 0.335938 47.949219 3.476562 L 47.949219 59.632812 C 47.949219 60.019531 47.867188 60.398438 47.703125 60.742188 C 47.375 61.40625 46.660156 62.027344 44.949219 61.765625 Z M 45.070312 61.898438 "/>
</g>
</svg>
