<?xml version="1.0"?>
<svg width="640" height="480" xmlns="http://www.w3.org/2000/svg" xmlns:svg="http://www.w3.org/2000/svg">
 <!-- Created with SVG-edit - https://github.com/SVG-Edit/svgedit-->
 <g class="layer">
  <title>Layer 1</title>
  <path d="m157.95,321.18c0.54,-5.88 1.82,-11.96 4.66,-17.01c2.72,-3.32 7.1,-3.22 10.76,-4.35c-5.13,-1.4 -9.91,-3.89 -14.61,-6.52c-7.69,-3.41 -15.51,1.5 -22.44,4.95c-5.14,2.51 -10.23,5.47 -15.77,6.71c-3.63,-2.58 -0.6,-9.89 1.96,-12.98c3.24,-4.26 8.03,-6.47 11.53,-10.36c1.54,-5.5 -5.57,-6.85 -8.76,-9.02c-4.95,-2.29 -9.16,-6.04 -12.93,-10.23c8.75,-0.52 16.48,5.02 24.37,8.39c4.27,1.58 8.29,3.8 12.28,5.99c1.83,-0.01 8.04,1.38 7.42,-0.75c-4.65,-0.21 -4.19,-6.36 -1.06,-8.79c4.6,-3.7 10.22,-5.88 14.05,-10.78c1.68,-1.38 2.57,-4.75 3.99,-5.81c6.13,4.89 9.71,12.6 13.09,19.91c5.5,1.27 11.06,2.3 16.67,2.61c5.48,2.56 10.16,7.02 14.45,11.54c3.25,2.5 4.12,9.32 -0.3,10.68c-10.9,6 -23.08,7.83 -35.08,8.4c-1.69,-0.12 -3.16,0.07 -3.18,2.34c-1.06,3.23 -1.49,6.99 -3.48,9.62c-2.2,-0.57 -0.12,-7.18 -2.37,-4.04c-4.44,4.92 -9.78,8.61 -15.25,11.91c0,-0.8 0,-1.61 0,-2.41z" fill="#ffbf00" id="svg_7" stroke="#000000"/>
  <path d="m265,157c0,-1 -199,4 -199,4c0,0 20,34 20,34c0,0 -33,40 -41,68c-8,28 12,109 86,124c74,15 118,-12 135,-29c17,-17 45,-52 27,-97c-18,-45 -46,-68 -46,-68c0,0 18,-36 18,-36z" fill="#000000" fill-opacity="0" id="svg_21" opacity="0.4" stroke="#87ffff" stroke-width="7"/>
  <path d="m51.88,257.93c1.01,-0.96 1.99,-1.17 2.76,-0.89c0.89,0.31 1.49,1.01 1.89,1.68c0.48,0.81 0.76,1.69 1.46,2.35c0.57,0.53 1.38,0.77 2.26,0.78c0.89,0.01 1.66,0.3 2.35,0.78c0.74,0.51 1.43,0.85 2.45,1.15c0.92,0.27 1.57,0.59 2.42,0.84c0.83,0.24 1.79,0.15 2.61,0.44c0.7,0.25 1.6,0.66 2.58,0.7c0.89,0.04 1.67,0 2.5,0c0.84,0 1.76,0 2.72,0.28c0.6,0.18 1.57,0.59 2.35,0.67c1.02,0.1 1.81,0.04 2.65,0.04c0.85,0 1.86,0 2.79,0c0.67,0 1.63,0.03 2.44,0c0.89,-0.03 1.73,-0.47 2.12,-1.27c0.41,-0.85 0.92,-1.42 1.67,-1.61c0.99,-0.26 1.71,-0.67 2.15,-1.36c0.47,-0.72 0.4,-1.78 0.86,-2.31c0.63,-0.74 1.3,-1.47 1.96,-1.9c0.72,-0.47 1.63,-0.66 2.07,-1.22c0.56,-0.7 0.68,-1.69 1.18,-2.52c0.37,-0.62 1.39,-0.53 2.29,-0.53c0.84,0 1.77,0 2.64,0c0.87,0 1.8,0 2.48,0c1.06,0 1.86,0 2.74,0c0.89,0 1.77,0 2.66,0c0.79,0 1.67,0 2.6,0c0.83,0 1.69,0 2.7,0c0.93,0 1.62,0 2.58,0c0.78,0 1.81,0 2.65,0c0.79,0 1.68,0 2.56,0c0.89,0 1.84,0 2.66,0c0.96,0 1.67,0 2.56,0c0.89,0 1.82,-0.09 2.66,0.34c0.74,0.39 1.45,0.64 2.32,0.98c0.75,0.3 1.51,0.75 2.29,1.1c0.97,0.43 1.51,0.81 2.32,1.32c0.59,0.38 1.63,0.59 2.15,1.16c0.45,0.48 1.21,1.12 1.95,1.41c1.12,0.44 1.97,0.45 2.76,0.87c0.73,0.4 1.48,0.56 2.34,0.67c0.87,0.11 1.56,0.4 2.34,0.6c1,0.25 1.9,0.33 2.9,0.34c0.79,0.01 1.58,0 2.56,0c0.79,0 1.77,0 2.56,0c0.98,0 1.75,0 2.74,0c0.81,0 1.72,-0.18 2.58,0.04c0.85,0.21 1.57,0.9 2.46,0.94c0.89,0.04 1.56,0 2.63,0.28c0.75,0.19 1.52,0.48 2.5,0.62c0.82,0.12 1.64,0.08 2.53,0.08c0.93,0 1.61,0 2.66,0c0.81,0 1.71,0 2.55,0c0.93,0 1.68,0 2.63,0c0.83,0 1.81,0 2.59,0c0.74,0 1.82,0 2.79,0c0.65,0 1.67,0 2.4,0c1.09,0 1.84,0 2.69,0c0.91,0 1.89,0.02 2.52,-0.02c1.28,-0.09 1.9,-0.25 2.56,-0.4c0.98,-0.21 1.85,-0.3 2.75,-0.56c0.88,-0.25 1.63,-0.89 2.33,-0.98c0.85,-0.11 1.72,-0.43 2.41,-0.83c0.74,-0.43 1.61,-0.82 2.4,-1.17c0.83,-0.37 1.63,-0.77 2.37,-1.15c0.75,-0.38 1.48,-0.76 2.38,-0.76c0.95,-0.01 1.63,0 2.68,0c0.91,0 1.73,0.04 2.69,0c0.76,-0.03 1.64,-0.39 2.39,-0.63c0.96,-0.32 1.79,-0.21 2.67,-0.62c0.64,-0.3 1.24,-1.12 2.05,-1.6c0.69,-0.4 1.14,-1.03 2.09,-1.06c0.84,-0.02 1.77,0 2.64,0c0.79,0 1.67,0 2.56,0c0.89,0 1.78,0 2.68,0c0.84,0 1.77,0 2.64,0c0.75,0 1.63,0 2.48,0c0.95,0 1.86,0 2.74,0c0.89,0 1.84,0.15 2.51,0.43c0.61,0.25 1.54,0.67 2.34,0.93c0.8,0.27 1.82,0.52 2.69,0.58c0.86,0.06 1.48,0.33 2.17,0.84c0.59,0.42 1.65,0.11 2.4,0.25c1,0.18 1.69,0.66 2.61,0.84c0.89,0.17 1.79,-0.03 2.71,0.38c0.63,0.28 1.25,1.05 2.08,1.46c0.71,0.35 1.7,0.56 2.36,0.95c0.74,0.44 1.5,0.92 2.25,1.25c0.84,0.38 1.64,0.74 2.36,1.18c0.67,0.4 1.25,1.21 1.97,1.87c0.57,0.53 1.38,0.78 2.26,0.78c0.89,0.01 1.78,-0.1 2.66,0c0.91,0.11 1.43,0.79 2.4,0.97c0.82,0.15 1.69,0.01 2.57,0.01c0.94,0 1.83,0 2.6,0c0.93,0 1.92,0 2.66,0c0.9,0 1.79,0 2.69,0c0.84,0 1.77,0 2.52,0c0.93,0.01 1.91,0.17 2.58,0.49c0.8,0.38 1.71,0.36 2.57,0.77c0.64,0.3 1.39,1.04 1.69,1.84c0.29,0.78 0.16,1.77 0.16,2.57c0,0.88 0,1.76 0,2.64c0,0.88 0,1.76 0,2.64c0,0.88 0,1.76 0,2.5c0,0.88 0,1.72 0,2.66c0,0.9 0,1.78 0,2.66c0,0.88 0,1.65 0,2.57c0,0.68 0,1.73 0,2.62c0,0.88 0.05,1.79 -0.42,2.43c-0.44,0.61 -0.56,1.34 -0.57,2.33c0,0.92 -0.16,1.76 -0.49,2.58c-0.33,0.82 -0.32,1.68 -0.53,2.54c-0.18,0.74 -0.8,1.32 -1.14,2.12c-0.41,0.94 -0.55,1.88 -0.79,2.63c-0.27,0.85 -1.07,1.44 -1.46,2.02c-0.57,0.86 -0.46,1.63 -1.01,2.4c-0.49,0.7 -0.92,1.32 -1.5,2c-0.48,0.57 -1.14,1.32 -1.51,2.1c-0.43,0.9 -0.56,1.66 -1.29,2.19c-0.61,0.44 -1.54,0.92 -2.2,1.66c-0.5,0.56 -0.74,1.37 -0.83,2.21c-0.1,0.94 0.02,1.6 -0.4,2.71c-0.26,0.7 -0.63,1.52 -0.86,2.36c-0.19,0.7 -0.38,1.47 -0.96,2.43c-0.42,0.69 -1.19,1.33 -1.77,1.93c-0.56,0.58 -1.08,1.37 -1.55,2.02c-0.51,0.71 -0.35,1.51 -0.95,2.39c-0.5,0.74 -1.09,1.13 -1.78,1.81c-0.62,0.62 -1.27,1.18 -1.6,2.02c-0.34,0.86 -0.53,1.78 -1.21,2.37c-0.63,0.54 -0.64,1.39 -0.95,2.12c-0.33,0.76 -0.66,1.48 -0.83,2.35c-0.19,0.93 -0.73,1.44 -0.95,2.37c-0.23,0.98 -0.58,1.61 -1.11,2.44c-0.43,0.66 -0.7,1.25 -1.18,2.22c-0.35,0.73 -0.55,1.68 -1.11,2.33c-0.53,0.61 -1.2,1.14 -2.06,1.47c-0.69,0.26 -1.75,0.28 -2.44,0.84c-0.64,0.51 -1.1,1.35 -1.77,1.71c-0.81,0.44 -1.64,0.74 -2.36,1.18c-0.67,0.4 -1.28,1.19 -1.97,1.87c-0.49,0.49 -1.14,1.19 -1.69,1.96c-0.49,0.68 -1.3,0.68 -2.16,1.06c-0.73,0.32 -1.45,0.79 -1.96,1.39c-0.54,0.63 -1.38,1 -2.35,1.27c-0.81,0.22 -1.45,0.56 -2.44,0.86c-0.75,0.23 -1.64,0.49 -2.33,0.75c-0.99,0.36 -1.76,0.73 -2.41,1.05c-0.88,0.43 -1.85,0.21 -2.62,0.39c-0.97,0.23 -1.48,0.56 -2.24,1.05c-0.93,0.6 -1.51,1.28 -2.39,1.61c-0.62,0.23 -1.64,0.15 -2.49,0.16c-0.93,0.02 -1.81,0.19 -2.41,0.6c-0.83,0.56 -1.45,1.17 -2.18,1.47c-0.81,0.33 -1.08,1.18 -1.92,1.74c-0.7,0.48 -1.44,0.93 -2.26,1.08c-0.87,0.15 -1.8,0.08 -2.39,0.57c-0.62,0.53 -1.38,1.09 -2.24,1.34c-0.85,0.25 -1.77,0.06 -2.55,0.06c-0.93,0 -1.74,-0.46 -2.63,0.04c-0.69,0.38 -0.44,1.67 -1.29,1.89c-0.93,0.24 -1.74,0.04 -2.58,0.04c-0.85,0 -1.79,-0.15 -2.67,0.28c-0.65,0.32 -1.49,0.6 -2.29,0.72c-0.97,0.14 -1.6,0.65 -2.56,0.87c-0.74,0.17 -1.72,-0.06 -2.68,0.25c-0.68,0.22 -1.44,0.79 -2.33,0.82c-0.89,0.03 -1.52,0.49 -2.21,0.86c-0.68,0.36 -1.73,0.12 -2.52,0.12c-0.98,0 -1.76,0 -2.79,0c-0.85,0 -1.74,0 -2.63,0c-0.89,0 -1.83,-0.11 -2.63,0.33c-0.53,0.29 -1.16,1.05 -2,1.39c-0.73,0.3 -1.75,0.24 -2.76,0.24c-0.79,0 -1.61,0 -2.45,0c-0.91,0 -1.88,0 -2.64,0c-0.94,0 -1.91,0 -2.79,0c-0.79,0 -1.59,0 -2.36,0.42c-0.81,0.44 -1.67,0.56 -2.56,0.56c-0.79,0 -1.73,0 -2.61,0c-0.85,0 -1.69,0 -2.61,0c-0.89,0 -1.83,-0.18 -2.66,0.16c-0.77,0.32 -1.48,0.8 -2.36,0.82c-0.89,0.01 -1.74,0 -2.56,0c-0.96,0 -1.77,0 -2.6,0c-1.01,0 -1.74,0 -2.72,0c-0.75,0 -1.82,0 -2.66,0c-0.89,0 -1.67,0 -2.5,0c-1,0 -1.69,0 -2.69,0c-0.92,0 -1.81,0 -2.69,0c-0.77,0 -1.7,0 -2.69,0c-0.74,0 -1.68,0.22 -2.53,-0.02c-0.77,-0.22 -1.1,-1.27 -1.89,-1.7c-0.63,-0.34 -1.85,-0.21 -2.64,-0.26c-0.59,-0.04 -1.56,-0.35 -2.31,-0.61c-1,-0.35 -1.96,-0.55 -2.64,-0.85c-0.58,-0.26 -1.53,-0.8 -2.29,-1.1c-0.87,-0.34 -1.83,-0.35 -2.78,-0.35c-0.82,0 -1.68,0.19 -2.49,-0.06c-0.87,-0.26 -1.34,-1.07 -2.03,-1.61c-0.68,-0.54 -1.51,-0.75 -2.1,-1.57c-0.56,-0.78 -0.92,-1.32 -1.78,-1.71c-0.82,-0.38 -1.63,-0.79 -2.21,-1.27c-0.64,-0.53 -1.47,-0.39 -2.31,-0.64c-0.77,-0.22 -1.11,-1.11 -1.9,-1.56c-0.75,-0.43 -1.52,-0.82 -2.26,-1.09c-0.95,-0.35 -1.79,-0.48 -2.47,-0.79c-0.98,-0.44 -1.55,-0.79 -2.46,-1.15c-0.8,-0.32 -1.76,-0.59 -2.45,-0.76c-0.68,-0.17 -1.93,-0.35 -2.67,-0.5c-0.72,-0.14 -1.04,-1.19 -1.71,-1.73c-0.6,-0.49 -1.68,-0.47 -2.32,-1.02c-0.63,-0.54 -1.2,-1.37 -1.87,-1.8c-0.78,-0.5 -1.26,-1.03 -1.98,-1.62c-0.58,-0.47 -1.53,-0.97 -2.01,-1.43c-0.74,-0.69 -1.23,-1.21 -2.05,-2.03c-0.51,-0.52 -1,-1.24 -1.15,-2.12c-0.14,-0.82 -0.84,-1.42 -1.01,-2.14c-0.22,-0.92 -0.67,-1.48 -1.35,-2.17c-0.69,-0.69 -1.35,-1.09 -2.05,-1.57c-0.66,-0.45 -1.36,-0.94 -2.32,-0.98c-0.74,-0.03 -1.55,-0.42 -2.23,-1.08c-0.5,-0.48 -1.09,-1.31 -1.97,-1.74c-0.64,-0.32 -1.52,-0.67 -2.07,-1.29c-0.56,-0.63 -0.68,-1.61 -0.87,-2.26c-0.29,-1 -0.75,-1.77 -0.93,-2.6c-0.17,-0.79 -0.64,-1.54 -0.91,-2.42c-0.24,-0.76 -1.13,-0.87 -1.78,-1.54c-0.62,-0.64 -0.15,-1.75 -0.3,-2.48c-0.18,-0.91 -0.61,-1.57 -1.22,-2.43c-0.4,-0.56 -0.51,-1.45 -0.73,-2.31c-0.22,-0.85 -1.15,-1.39 -1.58,-2.05c-0.46,-0.72 -0.11,-1.7 -0.36,-2.54c-0.22,-0.75 -0.97,-1.29 -0.98,-2.07c-0.01,-0.89 0.14,-1.79 -0.28,-2.65c-0.37,-0.75 -1.29,-1.16 -1.6,-2.04c-0.3,-0.83 -0.3,-1.73 -0.65,-2.35c-0.47,-0.84 -0.31,-1.81 -0.7,-2.54c-0.4,-0.74 -1.04,-1.4 -1.34,-2.1c-0.36,-0.85 -0.19,-1.87 -0.57,-2.69c-0.3,-0.65 -0.76,-1.47 -0.77,-2.37c0,-0.78 0,-1.65 0,-2.62c0,-0.76 0,-1.74 0,-2.54c0,-0.82 0.08,-1.82 -0.06,-2.49c-0.18,-0.9 -0.67,-1.77 -1.09,-2.59c-0.34,-0.65 -1.28,-1.17 -1.64,-1.96c-0.33,-0.73 -0.16,-1.66 -0.16,-2.54c0,-0.88 0.11,-1.77 0,-2.64c-0.11,-0.8 -0.82,-1.44 -0.98,-2.35c-0.15,-0.83 -0.81,-1.27 -0.99,-2.06c-0.19,-0.86 0,-1.76 0,-2.66c0,-0.94 0.04,-1.67 -0.22,-2.62c-0.21,-0.78 -0.68,-1.59 -0.76,-2.44c-0.08,-0.88 0,-1.77 0,-2.65c0,-0.89 0,-1.54 0,-2.55c0,-0.73 0,-1.81 0,-2.55c0,-1.02 -0.11,-1.7 0.01,-2.7c0.11,-0.94 0.53,-1.57 0.85,-2.55c0.24,-0.71 0.99,-1.22 1.1,-2.08c0.09,-0.68 0.64,-1.48 1.08,-2.17c0.41,-0.64 0.43,-1.83 1.05,-2.46c0.53,-0.53 1.7,-0.48 2.23,-0.95c0.71,-0.62 1.27,-1.25 1.54,-1.96l0,-0.88" fill="#94b8f7" id="svg_24" opacity="0.2" stroke="#000000" stroke-opacity="0" transform="rotate(0.308409 172.491 322.044)"/>
  <path d="m263.92,156.88c0,-1 -199,4 -199,4c0,0 20,34 20,34c0,0 -33,40 -41,68c-8,28 12,109 86,124c74,15 118,-12 135,-29c17,-17 45,-52 27,-97c-18,-45 -46,-68 -46,-68c0,0 18,-36 18,-36z" fill="#46a7f2" id="svg_25" opacity="0.3" stroke="#87ffff" stroke-width="7"/>
  <ellipse cx="241" cy="333" fill="#ffffff" id="svg_26" opacity="0.3" rx="20" ry="20" stroke="#ffffff"/>
  <ellipse cx="272" cy="301.5" fill="#ffffff" id="svg_27" opacity="0.3" rx="11" ry="10.5" stroke="#ffffff"/>
  <path d="m311.25,257.66l60.1,-83.07l0,0c-63.67,-25.06 -81.84,-72.26 -41.97,-109.06c39.86,-36.79 124.72,-51.13 196.03,-33.12c71.31,18.01 105.75,62.46 79.55,102.71c-26.19,40.24 -104.44,63.1 -180.78,52.81l-112.92,69.73z" fill="#00b7f9" id="svg_37" stroke="#000000" stroke-opacity="0" transform="matrix(1 0 0 1 0 0)"/>
  <text fill="#ffffff" font-family="Times" font-size="24" font-weight="normal" id="svg_39" stroke="#000000" stroke-opacity="0" stroke-width="0" text-anchor="middle" transform="matrix(1.1573 0 0 1.42956 -56.0636 -25.8269)" x="449.81" xml:space="preserve" y="98.2">Just keep swimming!</text>
 </g>
</svg>