<?xml version="1.0" encoding="UTF-8"?>
<svg xmlns="http://www.w3.org/2000/svg" xmlns:xlink="http://www.w3.org/1999/xlink" width="px" height="px" viewBox="0 0 64 64" version="1.1">
<g id="surface1">
<path style=" stroke:none;fill-rule:nonzero;fill:rgb(60.784314%,30.980392%,58.823529%);fill-opacity:1;" d="M 57.699219 15.351562 L 33.550781 1.449219 C 33.148438 1.199219 32.601562 1.101562 32 1.101562 C 31.398438 1.101562 30.851562 1.25 30.449219 1.449219 L 6.449219 15.398438 C 5.601562 15.898438 5 17.148438 5 18.101562 L 5 45.949219 C 5 46.5 5.101562 47.148438 5.5 47.699219 L 58.898438 16.699219 C 58.601562 16.101562 58.148438 15.648438 57.699219 15.351562 Z M 57.699219 15.351562 "/>
<path style=" stroke:none;fill-rule:nonzero;fill:rgb(40.784314%,12.941176%,47.843137%);fill-opacity:1;" d="M 5.351562 47.648438 C 5.601562 48.050781 5.949219 48.398438 6.300781 48.601562 L 30.398438 62.550781 C 30.800781 62.800781 31.351562 62.898438 31.949219 62.898438 C 32.550781 62.898438 33.101562 62.75 33.5 62.550781 L 57.5 48.601562 C 58.351562 48.101562 58.949219 46.851562 58.949219 45.898438 L 58.949219 18.050781 C 58.949219 17.601562 58.898438 17.101562 58.648438 16.648438 Z M 5.351562 47.648438 "/>
<path style=" stroke:none;fill-rule:nonzero;fill:rgb(100%,100%,100%);fill-opacity:1;" d="M 42.648438 38.050781 C 40.550781 41.75 36.550781 44.25 32 44.25 C 25.25 44.25 19.75 38.75 19.75 32 C 19.75 25.25 25.25 19.75 32 19.75 C 36.550781 19.75 40.550781 22.25 42.648438 26 L 49.148438 22.25 C 45.75 16.300781 39.351562 12.25 32 12.25 C 21.101562 12.25 12.25 21.101562 12.25 32 C 12.25 42.898438 21.101562 51.75 32 51.75 C 39.300781 51.75 45.699219 47.75 49.101562 41.851562 Z M 48.5 33.101562 L 48.949219 30.949219 L 46.851562 30.949219 L 46.851562 28.601562 L 49.398438 28.601562 L 50 25.5 L 52.449219 25.5 L 51.851562 28.550781 L 53.75 28.550781 L 54.351562 25.5 L 56.75 25.5 L 56.148438 28.550781 L 57.351562 28.550781 L 57.351562 30.898438 L 55.699219 30.898438 L 55.25 33.050781 L 57.351562 33.050781 L 57.351562 35.398438 L 54.800781 35.398438 L 54.199219 38.398438 L 51.75 38.398438 L 52.351562 35.398438 L 50.449219 35.398438 L 49.851562 38.398438 L 47.449219 38.398438 L 48.050781 35.398438 L 46.851562 35.398438 L 46.851562 33.050781 L 48.5 33.050781 Z M 50.898438 33.101562 L 52.800781 33.101562 L 53.25 30.949219 L 51.351562 30.949219 Z M 50.898438 33.101562 "/>
</g>
</svg>
